<?xml version="1.0" encoding="UTF-8" standalone="no"?>
<!DOCTYPE svg PUBLIC "-//W3C//DTD SVG 1.1//EN" "http://www.w3.org/Graphics/SVG/1.1/DTD/svg11.dtd">
<svg width="100%" height="100%" viewBox="0 0 1558 1549" version="1.1" xmlns="http://www.w3.org/2000/svg" xmlns:xlink="http://www.w3.org/1999/xlink" xml:space="preserve" xmlns:serif="http://www.serif.com/" style="fill-rule:evenodd;clip-rule:evenodd;stroke-linejoin:round;stroke-miterlimit:2;">
    <g transform="matrix(31.298597,0,0,31.298597,20.885604,16.118758)">
        <path d="M16.37,47.12C16.31,46.7 16.92,46.89 17.2,46.88C22.2,46.7 27.03,46.12 31.62,44.04C43.41,38.71 47.88,23.58 31.99,20.31C28.69,19.63 25.26,19.79 22.03,19.25C20.17,18.94 18.31,18.56 19.14,16.17C19.58,14.89 22.76,13.93 21.9,12.67C20.43,10.51 8.93,8.68 6.07,8.13C23.03,-10.75 53.91,5.99 47.1,30.75C43.48,43.91 29.3,51.2 16.37,47.12Z" style="fill:rgb(23,142,79);fill-rule:nonzero;"/>
    </g>
    <g transform="matrix(31.298597,0,0,31.298597,20.885604,16.118758)">
        <path d="M3.94,10.66C4.38,10.41 11.94,13.17 12.85,13.8C16.75,16.48 9.25,16.79 11.37,20.57C13.49,24.35 21.94,24.7 25.47,26.13C29.93,27.93 31.48,32.39 28.55,36.4C24.66,41.72 14.09,43.19 8.17,41.29C6.02,40.6 5.01,39.11 3.81,37.26C-1.41,29.22 -1.16,18.68 3.94,10.66Z" style="fill:rgb(26,166,198);fill-rule:nonzero;"/>
    </g>
</svg>
