<?xml version="1.0" encoding="UTF-8"?>
<svg id="Capa_2" data-name="Capa 2" xmlns="http://www.w3.org/2000/svg" viewBox="0 0 138.8 48.25">
  <defs>
    <style>
      .cls-1 {
        fill: #1aa6c6;
      }

      .cls-2 {
        fill: #178e4f;
      }
    </style>
  </defs>
  <g id="Capa_1-2" data-name="Capa 1">
    <path class="cls-2" d="M16.37,47.12c-.06-.42.55-.23.83-.24,5-.18,9.83-.76,14.42-2.84,11.79-5.33,16.26-20.46.37-23.73-3.3-.68-6.73-.52-9.96-1.06-1.86-.31-3.72-.69-2.89-3.08.44-1.28,3.62-2.24,2.76-3.5-1.47-2.16-12.97-3.99-15.83-4.54,16.96-18.88,47.84-2.14,41.03,22.62-3.62,13.16-17.8,20.45-30.73,16.37Z"/>
    <path class="cls-1" d="M3.94,10.66c.44-.25,8,2.51,8.91,3.14,3.9,2.68-3.6,2.99-1.48,6.77s10.57,4.13,14.1,5.56c4.46,1.8,6.01,6.26,3.08,10.27-3.89,5.32-14.46,6.79-20.38,4.89-2.15-.69-3.16-2.18-4.36-4.03-5.22-8.04-4.97-18.58.13-26.6Z"/>
    <path class="cls-1" d="M95.19,27.92c.39.24,2.24,4.96,3.11,5.52v-5.52h3.59v11.28h-3.95c-.31,0-2.66-4.65-3.11-5.28-.35.01,0,4.7.12,5.28h-3.83v-11.28c.7.15,3.74-.21,4.07,0Z"/>
    <path class="cls-1" d="M110.01,27.5c.95-.05,4.61.61,4.6,1.74,0,.17-1.74,2.32-1.93,2.41-.51.25-1.1-.47-1.61-.57-2.61-.51-3.7,3.09-1.86,4.52,1.67,1.3,2.65-.33,3.32-.2.58.11,1.64,2.11,2.31,2.48-3.06,3.09-8.85,2.09-10.35-2.11s1.25-8.05,5.52-8.27Z"/>
    <polygon class="cls-1" points="62.61 27.92 62.61 31.04 59.73 31.04 59.73 39.2 55.9 39.2 55.9 31.04 53.02 31.04 53.02 27.92 62.61 27.92"/>
    <polygon class="cls-1" points="57.81 11.6 57.81 19.76 61.65 19.76 61.65 22.88 53.98 22.88 53.98 11.6 57.81 11.6"/>
    <polygon class="cls-1" points="134.97 27.92 134.97 36.08 138.8 36.08 138.8 39.2 131.13 39.2 131.13 27.92 134.97 27.92"/>
    <path class="cls-1" d="M82.21,27.5c-8.3.4-7.79,12.43.64,12.2,8.28-.23,8.21-12.62-.64-12.2ZM82.15,36.07c-2.36-.34-2.35-4.52-.2-4.98,3.79-.81,3.96,5.53.2,4.98Z"/>
    <path class="cls-1" d="M72.2,34.76c.01-.16.85-.56,1.08-.82,1.2-1.39,1.22-3.83-.25-5.05-.25-.21-1.73-.96-1.92-.96h-6.59v11.28h3.83v-3.84c.73.3,1.88,3.84,2.28,3.84h4.19c-.06-.82-2.65-4.09-2.62-4.44ZM68.36,32.72c-.08-.08.06-1.57,0-1.92.53,0,1.46-.07,1.86.3.96.89-1.28,2.2-1.86,1.62Z"/>
    <path class="cls-1" d="M124.64,27.95l-3.94-.05-4.66,11.3h4.07c.08,0,.29-1.3.45-1.54.14-.2,3.38-.24,3.59-.11.19.12.43,1.65.51,1.65h4.31l-4.34-11.25ZM123.23,34.64h-1.68s.72-2.64.72-2.64c.33-.07.26.25.35.48.13.32.75,2.02.6,2.16Z"/>
    <path class="cls-1" d="M72.08,11.58l-3.94.05-4.34,11.25h3.95c.41,0,.49-1.63.75-1.69.25-.07,3.05-.04,3.3.05.64.22.54,1.65.63,1.65h4.31l-4.66-11.3ZM69.32,18.32c.37-.61.41-1.43.7-2.06.09-.21.11-.75.5-.34.09.09.37,2.05.72,2.4h-1.92Z"/>
  </g>
</svg>